<svg id="Layer_1" data-name="Layer 1" xmlns="http://www.w3.org/2000/svg" viewBox="0 0 493.87 191.35"><defs><style>.cls-1{fill:#00aeef;}.cls-2{font-size:111.41px;font-family:VAG-Rounded-Bold, VAG Rounded;font-weight:700;}.cls-2,.cls-5{fill:#bcbec0;}.cls-3{fill:#a7a9ac;}.cls-4{fill:#5fa2ff;}</style></defs><path class="cls-1" d="M691,331" transform="translate(-343.4 -205.42)"/><text class="cls-2" transform="translate(104.47 95.7) scale(1.49 1)">&lt;</text><path class="cls-3" d="M699.63,273l-54.79-16.62c-4-1.21-5.92-3.13-5.87-5.78a6.3,6.3,0,0,1,2.41-5.09,8.56,8.56,0,0,1,5.65-1.76,30,30,0,0,1,8.29,1.74l65,21.56q6,1.92,5.93,6.49T720,279.75L654.24,298.6a28.85,28.85,0,0,1-8.35,1.46,8.54,8.54,0,0,1-5.58-2,6.28,6.28,0,0,1-2.2-5.18q.09-4,6.1-5.54Z" transform="translate(-343.4 -205.42)"/><path class="cls-4" d="M545.38,303.31c-1.52,0-2.78-1.53-2.78-3.36V231.81a2.87,2.87,0,1,1,5.65,0V300A3.15,3.15,0,0,1,545.38,303.31Zm25.81-74.25a3.78,3.78,0,0,1,.76,4.68l-13,22.41a2.46,2.46,0,0,1-3.88.81A3.65,3.65,0,0,1,553.9,254v-22.2a3.13,3.13,0,0,1,2.78-3.36c1.6,0,2.78,1.52,2.78,3.36v11.61l7.85-13.55A2.46,2.46,0,0,1,571.19,229.06Zm0,73.64a2.53,2.53,0,0,1-3.88-.82l-7.85-13.54V300c0,1.83-1.18,3.36-2.78,3.36s-2.78-1.53-2.78-3.36V277.64c0-3.46,3.54-4.79,5.06-2l13,22.31A3.91,3.91,0,0,1,571.19,302.7Zm13.74-73.64a3.77,3.77,0,0,1,.76,4.68l-18.55,32.09,18.55,32.08a3.9,3.9,0,0,1-.76,4.79,2.53,2.53,0,0,1-3.88-.82l-19.65-34a4.17,4.17,0,0,1,0-4l19.65-34C582,228.34,583.67,227.94,584.93,229.06Z" transform="translate(-343.4 -205.42)"/><path class="cls-4" d="M597,303.31a3.15,3.15,0,0,1-2.87-3.36V231.81a2.87,2.87,0,1,1,5.65,0V300C599.77,301.78,598.51,303.31,597,303.31Zm11.22-74.86a3.14,3.14,0,0,1,2.86,3.36v23.83h11.22V231.81a2.87,2.87,0,1,1,5.65,0V259.1a3.13,3.13,0,0,1-2.78,3.36H608.21a3.14,3.14,0,0,1-2.79-3.36V231.81A3.14,3.14,0,0,1,608.21,228.45Zm16.95,74.86a3.15,3.15,0,0,1-2.87-3.36V276.11H611.07V300a2.87,2.87,0,1,1-5.65,0v-27.3a3.15,3.15,0,0,1,2.79-3.36h16.95c1.52,0,2.78,1.53,2.78,3.36V300C627.94,301.78,626.68,303.31,625.16,303.31Zm11.22-74.86a3.14,3.14,0,0,1,2.86,3.36V300a2.87,2.87,0,1,1-5.65,0V231.81A3.14,3.14,0,0,1,636.38,228.45Z" transform="translate(-343.4 -205.42)"/><path class="cls-5" d="M631.69,228l5.79,3.2-86.85,72.58-5.78-3.2Z" transform="translate(-343.4 -205.42)"/><path class="cls-5" d="M355.35,312.51h14c15.81,0,25.55,8.16,25.55,26.11,0,26.93-14,40.19-31.8,40.19H343.4Zm7.35,53.25c9,0,17.1-6.94,17.1-26.12,0-10.4-4.78-14.07-10.85-14.07h-1.28l-7.17,40.19Z" transform="translate(-343.4 -205.42)"/><path class="cls-5" d="M401.48,357.19c0-18.36,12.68-30.6,26.84-30.6,12.13,0,19.11,8.16,19.11,20.19A44.91,44.91,0,0,1,445.78,358H412.42L414,347.8h23.34l-3.86,2.35a15.79,15.79,0,0,0,.56-3.67c0-5-2.39-7.45-6.07-7.45-4.78,0-11.76,5.1-11.76,17.55,0,8.77,4.59,11,9.55,11s8.83-2,13.05-4.89l4.78,10.81c-5.69,4.28-13.05,6.53-21.32,6.53C410.49,380,401.48,373.1,401.48,357.19Z" transform="translate(-343.4 -205.42)"/><path class="cls-5" d="M458.83,327.81h14.52l2.39,23.46c.55,5.1.82,10.3,1.19,15.71h.37c2-5.2,4.41-10.61,6.71-15.71l10.48-23.46H509l-25.37,51H466.55Z" transform="translate(-343.4 -205.42)"/><path class="cls-5" d="M511.76,357.19c0-18.36,12.68-30.6,26.84-30.6,12.13,0,19.11,8.16,19.11,20.19A44.91,44.91,0,0,1,556.06,358H522.7l1.56-10.2H547.6l-3.86,2.35a15.79,15.79,0,0,0,.55-3.67c0-5-2.39-7.45-6.06-7.45-4.78,0-11.77,5.1-11.77,17.55,0,8.77,4.6,11,9.56,11s8.83-2,13.05-4.89l4.78,10.81c-5.7,4.28-13.05,6.53-21.32,6.53C520.77,380,511.76,373.1,511.76,357.19Z" transform="translate(-343.4 -205.42)"/><path class="cls-5" d="M578.48,363.1a30.41,30.41,0,0,1,.73-6.73l7.54-35.9H574.44l2.39-12.65h26.83l-10.29,50.8a14.24,14.24,0,0,0-.37,3.46c0,3.27,2.21,4.7,4.78,4.7s4.23-.62,7.17-2l2.94,12A31.08,31.08,0,0,1,593.18,380C584.54,380,578.48,373.71,578.48,363.1Z" transform="translate(-343.4 -205.42)"/><path class="cls-5" d="M621.12,357.19c0-18.57,13-30.6,26.84-30.6,12.86,0,20.77,9,20.77,22.85,0,18.56-13.06,30.6-26.84,30.6C629,380,621.12,371.06,621.12,357.19Zm32.72-7.35c0-6.53-2.76-10-7-10-5.51,0-10.84,6.73-10.84,16.93,0,6.53,2.75,10,7,10C648.51,366.78,653.84,360,653.84,349.84Z" transform="translate(-343.4 -205.42)"/><path class="cls-5" d="M683.43,327.81h11.94l.1,6.94h.27c4.41-5.1,9-8.16,14.52-8.16,9.19,0,14.71,7.14,14.71,19.79,0,18.76-9.74,33.66-24.45,33.66a13.85,13.85,0,0,1-11.4-5.51h-.18l-1.1,9.59-2.21,12.65h-14.7Zm26.28,20.61c0-6-2.39-8.57-5.51-8.57-2.94,0-6.25,2-9.38,7.75l-2.94,15.3c1.29,2.65,4.41,3.88,7,3.88C704.66,366.78,709.71,359.23,709.71,348.42Z" transform="translate(-343.4 -205.42)"/><path class="cls-5" d="M732.32,357.19c0-18.36,12.68-30.6,26.83-30.6,12.13,0,19.12,8.16,19.12,20.19A44.36,44.36,0,0,1,776.61,358H743.25l1.57-10.2h23.34l-3.86,2.35a15.79,15.79,0,0,0,.55-3.67c0-5-2.39-7.45-6.06-7.45C754,339,747,344.13,747,356.58c0,8.77,4.6,11,9.56,11s8.82-2,13-4.89l4.78,10.81c-5.7,4.28-13,6.53-21.32,6.53C741.32,380,732.32,373.1,732.32,357.19Z" transform="translate(-343.4 -205.42)"/><path class="cls-5" d="M798.67,327.71l12,.1-1.11,13.26h.37c4.78-9.18,11.76-14.48,18.38-14.48,4,0,7.35.81,9,2l-5.15,14.07a13.61,13.61,0,0,0-6.8-1.63c-5.7,0-12.13,6.32-17.09,16.73l-3.86,21H789.66Z" transform="translate(-343.4 -205.42)"/></svg>