<svg id="Layer_1" data-name="Layer 1" xmlns="http://www.w3.org/2000/svg" viewBox="0 0 459.47 171.43"><defs><style>.cls-1{fill:#00aeef;}.cls-2{fill:#5fa2ff;}</style></defs><path class="cls-1" d="M691,331" transform="translate(-337.02 -225.34)"/><path d="M464.36,272.94l51.28,15.5c3.71,1.13,5.57,3,5.57,5.66a6.49,6.49,0,0,1-2.15,5.14,7.64,7.64,0,0,1-5.22,1.88,26.42,26.42,0,0,1-7.75-1.58L445.27,279.3q-5.64-1.8-5.64-6.36t5.64-6.37l60.82-20.18a25.5,25.5,0,0,1,7.75-1.63,7.63,7.63,0,0,1,5.22,1.87,6.51,6.51,0,0,1,2.15,5.15c0,2.64-1.86,4.53-5.57,5.65Z" transform="translate(-337.02 -225.34)"/><path d="M668.44,273l-51-16.62c-3.68-1.21-5.5-3.13-5.45-5.78a6.43,6.43,0,0,1,2.24-5.09,7.59,7.59,0,0,1,5.26-1.76,26.33,26.33,0,0,1,7.71,1.74L687.65,267q5.61,1.92,5.52,6.49t-5.76,6.24L626.22,298.6a25.23,25.23,0,0,1-7.78,1.46,7.63,7.63,0,0,1-5.19-2,6.5,6.5,0,0,1-2-5.18q.07-4,5.67-5.54Z" transform="translate(-337.02 -225.34)"/><path class="cls-2" d="M524.93,303.31c-1.41,0-2.59-1.53-2.59-3.36V231.81c0-1.84,1.18-3.36,2.59-3.36s2.67,1.52,2.67,3.36V300C527.6,301.78,526.42,303.31,524.93,303.31Zm24-74.25a4,4,0,0,1,.71,4.68l-12.08,22.41A2.21,2.21,0,0,1,534,257a3.76,3.76,0,0,1-1.1-2.95v-22.2c0-1.84,1.18-3.36,2.59-3.36S538,230,538,231.81v11.61l7.29-13.55C546.2,228.34,547.77,227.94,548.94,229.06Zm0,73.64a2.27,2.27,0,0,1-3.61-.82L538,288.34V300c0,1.83-1.1,3.36-2.59,3.36s-2.59-1.53-2.59-3.36V277.64c0-3.46,3.29-4.79,4.71-2l12.08,22.31A4.12,4.12,0,0,1,548.94,302.7Zm12.79-73.64a4,4,0,0,1,.71,4.68l-17.26,32.09,17.26,32.08a4.12,4.12,0,0,1-.71,4.79,2.27,2.27,0,0,1-3.61-.82l-18.28-34a4.4,4.4,0,0,1,0-4l18.28-34C559,228.34,560.56,227.94,561.73,229.06Z" transform="translate(-337.02 -225.34)"/><path class="cls-2" d="M573,303.31c-1.49,0-2.67-1.53-2.67-3.36V231.81c0-1.84,1.18-3.36,2.67-3.36s2.59,1.52,2.59,3.36V300C575.54,301.78,574.36,303.31,573,303.31Zm10.44-74.86c1.49,0,2.66,1.52,2.66,3.36v23.83h10.44V231.81c0-1.84,1.18-3.36,2.67-3.36s2.59,1.52,2.59,3.36V259.1c0,1.84-1.18,3.36-2.59,3.36H583.39c-1.42,0-2.59-1.52-2.59-3.36V231.81C580.8,230,582,228.45,583.39,228.45Zm15.77,74.86c-1.49,0-2.67-1.53-2.67-3.36V276.11H586.05V300c0,1.83-1.17,3.36-2.66,3.36s-2.59-1.53-2.59-3.36v-27.3c0-1.83,1.17-3.36,2.59-3.36h15.77c1.41,0,2.59,1.53,2.59,3.36V300C601.75,301.78,600.57,303.31,599.16,303.31Zm10.43-74.86c1.49,0,2.67,1.52,2.67,3.36V300c0,1.83-1.18,3.36-2.67,3.36S607,301.78,607,300V231.81C607,230,608.18,228.45,609.59,228.45Z" transform="translate(-337.02 -225.34)"/><path d="M606.66,225.34l5.38,3.2-80.79,72.58-5.39-3.2Z" transform="translate(-337.02 -225.34)"/><path d="M348.14,312.51h13c14.71,0,23.77,8.16,23.77,26.11,0,26.93-13,40.19-29.58,40.19H337ZM355,365.76c8.38,0,15.9-6.94,15.9-26.12,0-10.4-4.45-14.07-10.09-14.07H359.6l-6.67,40.19Z" transform="translate(-337.02 -225.34)"/><path d="M391.06,357.19c0-18.36,11.8-30.6,25-30.6,11.29,0,17.79,8.16,17.79,20.19A48.06,48.06,0,0,1,432.27,358h-31l1.46-10.2H424.4l-3.59,2.35a16.92,16.92,0,0,0,.52-3.67c0-5-2.23-7.45-5.65-7.45-4.44,0-10.94,5.1-10.94,17.55,0,8.77,4.27,11,8.89,11s8.21-2,12.14-4.89l4.45,10.81c-5.3,4.28-12.14,6.53-19.84,6.53C399.44,380,391.06,373.1,391.06,357.19Z" transform="translate(-337.02 -225.34)"/><path d="M444.41,327.81h13.51l2.22,23.46c.51,5.1.77,10.3,1.11,15.71h.34c1.89-5.2,4.11-10.61,6.25-15.71l9.74-23.46h13.51l-23.59,51H451.59Z" transform="translate(-337.02 -225.34)"/><path d="M493.66,357.19c0-18.36,11.79-30.6,25-30.6,11.29,0,17.79,8.16,17.79,20.19A48.06,48.06,0,0,1,534.87,358h-31l1.45-10.2H527l-3.59,2.35a16.92,16.92,0,0,0,.51-3.67c0-5-2.22-7.45-5.64-7.45-4.45,0-10.94,5.1-10.94,17.55,0,8.77,4.27,11,8.89,11s8.21-2,12.14-4.89l4.45,10.81C527.51,377.79,520.67,380,513,380,502,380,493.66,373.1,493.66,357.19Z" transform="translate(-337.02 -225.34)"/><path d="M555.73,363.1a32.72,32.72,0,0,1,.68-6.73l7-35.9H552l2.22-12.65h25l-9.58,50.8a15.73,15.73,0,0,0-.34,3.46c0,3.27,2,4.7,4.44,4.7s3.94-.62,6.67-2l2.74,12A27.24,27.24,0,0,1,569.41,380C561.37,380,555.73,373.71,555.73,363.1Z" transform="translate(-337.02 -225.34)"/><path d="M595.4,357.19c0-18.57,12.14-30.6,25-30.6,12,0,19.32,9,19.32,22.85,0,18.56-12.14,30.6-25,30.6C602.75,380,595.4,371.06,595.4,357.19Zm30.44-7.35c0-6.53-2.57-10-6.5-10-5.13,0-10.09,6.73-10.09,16.93,0,6.53,2.57,10,6.5,10C620.88,366.78,625.84,360,625.84,349.84Z" transform="translate(-337.02 -225.34)"/><path d="M653.37,327.81h11.11l.09,6.94h.25c4.11-5.1,8.38-8.16,13.51-8.16,8.55,0,13.68,7.14,13.68,19.79C692,365.14,683,380,669.27,380a12.57,12.57,0,0,1-10.6-5.51h-.17l-1,9.59-2.05,12.65H641.74Zm24.45,20.61c0-6-2.22-8.57-5.13-8.57-2.74,0-5.81,2-8.72,7.75l-2.74,15.3a7.15,7.15,0,0,0,6.5,3.88C673.12,366.78,677.82,359.23,677.82,348.42Z" transform="translate(-337.02 -225.34)"/><path d="M698.85,357.19c0-18.36,11.8-30.6,25-30.6,11.29,0,17.78,8.16,17.78,20.19A47.52,47.52,0,0,1,740.06,358H709l1.45-10.2H732.2l-3.59,2.35a17.55,17.55,0,0,0,.51-3.67c0-5-2.22-7.45-5.64-7.45-4.45,0-11,5.1-11,17.55,0,8.77,4.28,11,8.89,11s8.21-2,12.15-4.89L738,373.51c-5.3,4.28-12.14,6.53-19.83,6.53C707.23,380,698.85,373.1,698.85,357.19Z" transform="translate(-337.02 -225.34)"/><path d="M760.58,327.71l11.12.1-1,13.26H771c4.45-9.18,11-14.48,17.1-14.48,3.77,0,6.85.81,8.38,2l-4.78,14.07a12,12,0,0,0-6.33-1.63c-5.3,0-11.29,6.32-15.91,16.73l-3.59,21H752.2Z" transform="translate(-337.02 -225.34)"/></svg>